{
	"asset":{
		"generator":"Khronos glTF Blender I/O v3.6.27",
		"version":"2.0"
	},
	"scene":0,
	"scenes":[
		{
			"name":"Scene",
			"nodes":[
				0
			]
		}
	],
	"nodes":[
		{
			"mesh":0,
			"name":"Cube",
			"rotation":[
				0.0039547220803797245,
				-0.02907446399331093,
				0.1347212940454483,
				0.9904490113258362
			],
			"scale":[
				0.03832037374377251,
				0.03832036629319191,
				0.03832037374377251
			],
			"translation":[
				0.01223900355398655,
				2.0725669860839844,
				-0.010324892587959766
			]
		}
	],
	"materials":[
		{
			"doubleSided":true,
			"name":"Material.006",
			"pbrMetallicRoughness":{
				"baseColorFactor":[
					0.008247743360698223,
					0.00592563534155488,
					0.02514977753162384,
					1
				],
				"metallicFactor":0,
				"roughnessFactor":0.5
			}
		},
		{
			"doubleSided":true,
			"name":"Material.004",
			"pbrMetallicRoughness":{
				"baseColorFactor":[
					0.03183664381504059,
					0.025520648807287216,
					0.04536062479019165,
					1
				],
				"metallicFactor":0,
				"roughnessFactor":0.5
			}
		},
		{
			"doubleSided":true,
			"name":"Material.001",
			"pbrMetallicRoughness":{
				"baseColorFactor":[
					0.8000000715255737,
					0.3111192584037781,
					0.01338035799562931,
					1
				],
				"metallicFactor":0,
				"roughnessFactor":0.5
			}
		},
		{
			"doubleSided":true,
			"name":"Material.005",
			"pbrMetallicRoughness":{
				"baseColorFactor":[
					0.3939192593097687,
					0.3939192593097687,
					0.3939192593097687,
					1
				],
				"metallicFactor":0,
				"roughnessFactor":0.5
			}
		}
	],
	"meshes":[
		{
			"name":"Cube.002",
			"primitives":[
				{
					"attributes":{
						"POSITION":0,
						"NORMAL":1,
						"TEXCOORD_0":2
					},
					"indices":3,
					"material":0
				},
				{
					"attributes":{
						"POSITION":4,
						"NORMAL":5,
						"TEXCOORD_0":6
					},
					"indices":7,
					"material":1
				},
				{
					"attributes":{
						"POSITION":8,
						"NORMAL":9,
						"TEXCOORD_0":10
					},
					"indices":11,
					"material":2
				},
				{
					"attributes":{
						"POSITION":12,
						"NORMAL":13,
						"TEXCOORD_0":14
					},
					"indices":15,
					"material":3
				}
			]
		}
	],
	"accessors":[
		{
			"bufferView":0,
			"componentType":5126,
			"count":281,
			"max":[
				-4.944908142089844,
				38.97225570678711,
				1.1641615629196167
			],
			"min":[
				-14.83479118347168,
				7.925501823425293,
				-0.8358384370803833
			],
			"type":"VEC3"
		},
		{
			"bufferView":1,
			"componentType":5126,
			"count":281,
			"type":"VEC3"
		},
		{
			"bufferView":2,
			"componentType":5126,
			"count":281,
			"type":"VEC2"
		},
		{
			"bufferView":3,
			"componentType":5123,
			"count":780,
			"type":"SCALAR"
		},
		{
			"bufferView":4,
			"componentType":5126,
			"count":1853,
			"max":[
				16.19532012939453,
				34.98386001586914,
				17.422950744628906
			],
			"min":[
				-18.322254180908203,
				-45.7177619934082,
				-17.094627380371094
			],
			"type":"VEC3"
		},
		{
			"bufferView":5,
			"componentType":5126,
			"count":1853,
			"type":"VEC3"
		},
		{
			"bufferView":6,
			"componentType":5126,
			"count":1853,
			"type":"VEC2"
		},
		{
			"bufferView":7,
			"componentType":5123,
			"count":6222,
			"type":"SCALAR"
		},
		{
			"bufferView":8,
			"componentType":5126,
			"count":971,
			"max":[
				13.292203903198242,
				11.322110176086426,
				4.370480537414551
			],
			"min":[
				9.189674377441406,
				5.6805739402771,
				-5.415154933929443
			],
			"type":"VEC3"
		},
		{
			"bufferView":9,
			"componentType":5126,
			"count":971,
			"type":"VEC3"
		},
		{
			"bufferView":10,
			"componentType":5126,
			"count":971,
			"type":"VEC2"
		},
		{
			"bufferView":11,
			"componentType":5123,
			"count":2934,
			"type":"SCALAR"
		},
		{
			"bufferView":12,
			"componentType":5126,
			"count":708,
			"max":[
				13.411815643310547,
				2.2953710556030273,
				14.639443397521973
			],
			"min":[
				-15.538748741149902,
				-16.807628631591797,
				-14.31112003326416
			],
			"type":"VEC3"
		},
		{
			"bufferView":13,
			"componentType":5126,
			"count":708,
			"type":"VEC3"
		},
		{
			"bufferView":14,
			"componentType":5126,
			"count":708,
			"type":"VEC2"
		},
		{
			"bufferView":15,
			"componentType":5123,
			"count":2496,
			"type":"SCALAR"
		}
	],
	"bufferViews":[
		{
			"buffer":0,
			"byteLength":3372,
			"byteOffset":0,
			"target":34962
		},
		{
			"buffer":0,
			"byteLength":3372,
			"byteOffset":3372,
			"target":34962
		},
		{
			"buffer":0,
			"byteLength":2248,
			"byteOffset":6744,
			"target":34962
		},
		{
			"buffer":0,
			"byteLength":1560,
			"byteOffset":8992,
			"target":34963
		},
		{
			"buffer":0,
			"byteLength":22236,
			"byteOffset":10552,
			"target":34962
		},
		{
			"buffer":0,
			"byteLength":22236,
			"byteOffset":32788,
			"target":34962
		},
		{
			"buffer":0,
			"byteLength":14824,
			"byteOffset":55024,
			"target":34962
		},
		{
			"buffer":0,
			"byteLength":12444,
			"byteOffset":69848,
			"target":34963
		},
		{
			"buffer":0,
			"byteLength":11652,
			"byteOffset":82292,
			"target":34962
		},
		{
			"buffer":0,
			"byteLength":11652,
			"byteOffset":93944,
			"target":34962
		},
		{
			"buffer":0,
			"byteLength":7768,
			"byteOffset":105596,
			"target":34962
		},
		{
			"buffer":0,
			"byteLength":5868,
			"byteOffset":113364,
			"target":34963
		},
		{
			"buffer":0,
			"byteLength":8496,
			"byteOffset":119232,
			"target":34962
		},
		{
			"buffer":0,
			"byteLength":8496,
			"byteOffset":127728,
			"target":34962
		},
		{
			"buffer":0,
			"byteLength":5664,
			"byteOffset":136224,
			"target":34962
		},
		{
			"buffer":0,
			"byteLength":4992,
			"byteOffset":141888,
			"target":34963
		}
	],
	"buffers":[
		{
			"byteLength":146880,
			"uri":"AnikC.bin"
		}
	]
}
