{
    "asset" : {
        "generator" : "Khronos glTF Blender I/O v1.6.16",
        "version" : "2.0"
    },
    "scene" : 0,
    "scenes" : [
        {
            "name" : "Scene",
            "nodes" : [
                0
            ]
        }
    ],
    "nodes" : [
        {
            "mesh" : 0,
            "name" : "Cylinder.001",
            "rotation" : [
                0.010828756727278233,
                0.16184952855110168,
                -0.004451889079064131,
                0.9867460131645203
            ],
            "scale" : [
                0.5813956260681152,
                0.5813956260681152,
                0.5813956260681152
            ],
            "translation" : [
                0,
                -0.4532642364501953,
                0.27045518159866333
            ]
        }
    ],
    "materials" : [
        {
            "doubleSided" : true,
            "name" : "Material.010",
            "pbrMetallicRoughness" : {
                "baseColorFactor" : [
                    0.0056046913377940655,
                    0.0056046913377940655,
                    0.0056046913377940655,
                    1
                ],
                "metallicFactor" : 0,
                "roughnessFactor" : 0.5
            }
        },
        {
            "doubleSided" : true,
            "name" : "Material.002",
            "pbrMetallicRoughness" : {
                "baseColorFactor" : [
                    0.017387786880135536,
                    0.008094120770692825,
                    0.0031389519572257996,
                    1
                ],
                "metallicFactor" : 0,
                "roughnessFactor" : 0.5
            }
        },
        {
            "doubleSided" : true,
            "name" : "Material.003",
            "pbrMetallicRoughness" : {
                "baseColorFactor" : [
                    0.43854430317878723,
                    0.1042783334851265,
                    0.00738137774169445,
                    1
                ],
                "metallicFactor" : 0,
                "roughnessFactor" : 0.5
            }
        },
        {
            "doubleSided" : true,
            "name" : "Material.011",
            "pbrMetallicRoughness" : {
                "baseColorFactor" : [
                    0.3108135163784027,
                    0.3108135163784027,
                    0.3108135163784027,
                    1
                ],
                "metallicFactor" : 0,
                "roughnessFactor" : 0.5
            }
        },
        {
            "doubleSided" : true,
            "name" : "Material.013",
            "pbrMetallicRoughness" : {
                "baseColorFactor" : [
                    0.5382255911827087,
                    0.05996676906943321,
                    0.004403010010719299,
                    1
                ],
                "metallicFactor" : 0,
                "roughnessFactor" : 0.5
            }
        },
        {
            "doubleSided" : true,
            "name" : "Material.015",
            "pbrMetallicRoughness" : {
                "baseColorFactor" : [
                    0.5070688128471375,
                    0.5070688128471375,
                    0.5070688128471375,
                    1
                ],
                "metallicFactor" : 0,
                "roughnessFactor" : 0.5
            }
        },
        {
            "doubleSided" : true,
            "name" : "Material.016",
            "pbrMetallicRoughness" : {
                "baseColorFactor" : [
                    0.004895665682852268,
                    0.004895665682852268,
                    0.004895665682852268,
                    1
                ],
                "metallicFactor" : 0,
                "roughnessFactor" : 0.5
            }
        },
        {
            "doubleSided" : true,
            "name" : "Material.014",
            "pbrMetallicRoughness" : {
                "baseColorFactor" : [
                    0.19598853588104248,
                    0.19598853588104248,
                    0.19598853588104248,
                    1
                ],
                "metallicFactor" : 0,
                "roughnessFactor" : 0.5
            }
        },
        {
            "doubleSided" : true,
            "name" : "Material.009",
            "pbrMetallicRoughness" : {
                "baseColorFactor" : [
                    0.8000000715255737,
                    0.27460819482803345,
                    0.007409060839563608,
                    1
                ],
                "metallicFactor" : 0,
                "roughnessFactor" : 0.5
            }
        },
        {
            "doubleSided" : true,
            "name" : "Material.017",
            "pbrMetallicRoughness" : {
                "baseColorFactor" : [
                    0.8000000715255737,
                    0.2614743113517761,
                    0.04545041546225548,
                    1
                ],
                "metallicFactor" : 0,
                "roughnessFactor" : 0.5
            }
        },
        {
            "doubleSided" : true,
            "name" : "Material.018",
            "pbrMetallicRoughness" : {
                "baseColorFactor" : [
                    0.05221818760037422,
                    0.05221818760037422,
                    0.05221818760037422,
                    1
                ],
                "metallicFactor" : 0,
                "roughnessFactor" : 0.5
            }
        }
    ],
    "meshes" : [
        {
            "name" : "Cylinder.001",
            "primitives" : [
                {
                    "attributes" : {
                        "POSITION" : 0,
                        "NORMAL" : 1,
                        "TEXCOORD_0" : 2
                    },
                    "indices" : 3,
                    "material" : 0
                },
                {
                    "attributes" : {
                        "POSITION" : 4,
                        "NORMAL" : 5,
                        "TEXCOORD_0" : 6
                    },
                    "indices" : 7,
                    "material" : 1
                },
                {
                    "attributes" : {
                        "POSITION" : 8,
                        "NORMAL" : 9,
                        "TEXCOORD_0" : 10
                    },
                    "indices" : 11,
                    "material" : 2
                },
                {
                    "attributes" : {
                        "POSITION" : 12,
                        "NORMAL" : 13,
                        "TEXCOORD_0" : 14
                    },
                    "indices" : 15,
                    "material" : 3
                },
                {
                    "attributes" : {
                        "POSITION" : 16,
                        "NORMAL" : 17,
                        "TEXCOORD_0" : 18
                    },
                    "indices" : 19,
                    "material" : 4
                },
                {
                    "attributes" : {
                        "POSITION" : 20,
                        "NORMAL" : 21,
                        "TEXCOORD_0" : 22
                    },
                    "indices" : 23,
                    "material" : 5
                },
                {
                    "attributes" : {
                        "POSITION" : 24,
                        "NORMAL" : 25,
                        "TEXCOORD_0" : 26
                    },
                    "indices" : 27,
                    "material" : 6
                },
                {
                    "attributes" : {
                        "POSITION" : 28,
                        "NORMAL" : 29,
                        "TEXCOORD_0" : 30
                    },
                    "indices" : 31,
                    "material" : 7
                },
                {
                    "attributes" : {
                        "POSITION" : 32,
                        "NORMAL" : 33,
                        "TEXCOORD_0" : 34
                    },
                    "indices" : 35,
                    "material" : 8
                },
                {
                    "attributes" : {
                        "POSITION" : 36,
                        "NORMAL" : 37,
                        "TEXCOORD_0" : 38
                    },
                    "indices" : 39,
                    "material" : 9
                },
                {
                    "attributes" : {
                        "POSITION" : 40,
                        "NORMAL" : 41,
                        "TEXCOORD_0" : 42
                    },
                    "indices" : 43,
                    "material" : 10
                }
            ]
        }
    ],
    "accessors" : [
        {
            "bufferView" : 0,
            "componentType" : 5126,
            "count" : 1736,
            "max" : [
                1,
                2.275161027908325,
                1
            ],
            "min" : [
                -1,
                -0.16626203060150146,
                -1
            ],
            "type" : "VEC3"
        },
        {
            "bufferView" : 1,
            "componentType" : 5126,
            "count" : 1736,
            "type" : "VEC3"
        },
        {
            "bufferView" : 2,
            "componentType" : 5126,
            "count" : 1736,
            "type" : "VEC2"
        },
        {
            "bufferView" : 3,
            "componentType" : 5123,
            "count" : 5424,
            "type" : "SCALAR"
        },
        {
            "bufferView" : 4,
            "componentType" : 5126,
            "count" : 643,
            "max" : [
                1,
                2.3725504875183105,
                1
            ],
            "min" : [
                -1,
                0.17568320035934448,
                -1
            ],
            "type" : "VEC3"
        },
        {
            "bufferView" : 5,
            "componentType" : 5126,
            "count" : 643,
            "type" : "VEC3"
        },
        {
            "bufferView" : 6,
            "componentType" : 5126,
            "count" : 643,
            "type" : "VEC2"
        },
        {
            "bufferView" : 7,
            "componentType" : 5123,
            "count" : 2022,
            "type" : "SCALAR"
        },
        {
            "bufferView" : 8,
            "componentType" : 5126,
            "count" : 390,
            "max" : [
                1,
                2.4063704013824463,
                1
            ],
            "min" : [
                -1,
                0.0437619686126709,
                -1
            ],
            "type" : "VEC3"
        },
        {
            "bufferView" : 9,
            "componentType" : 5126,
            "count" : 390,
            "type" : "VEC3"
        },
        {
            "bufferView" : 10,
            "componentType" : 5126,
            "count" : 390,
            "type" : "VEC2"
        },
        {
            "bufferView" : 11,
            "componentType" : 5123,
            "count" : 1152,
            "type" : "SCALAR"
        },
        {
            "bufferView" : 12,
            "componentType" : 5126,
            "count" : 1277,
            "max" : [
                0.991326093673706,
                2.7545979022979736,
                0.7282634377479553
            ],
            "min" : [
                -0.7791045904159546,
                -0.96205735206604,
                -0.7100515961647034
            ],
            "type" : "VEC3"
        },
        {
            "bufferView" : 13,
            "componentType" : 5126,
            "count" : 1277,
            "type" : "VEC3"
        },
        {
            "bufferView" : 14,
            "componentType" : 5126,
            "count" : 1277,
            "type" : "VEC2"
        },
        {
            "bufferView" : 15,
            "componentType" : 5123,
            "count" : 4602,
            "type" : "SCALAR"
        },
        {
            "bufferView" : 16,
            "componentType" : 5126,
            "count" : 372,
            "max" : [
                1,
                2.043761968612671,
                1
            ],
            "min" : [
                -1,
                0.11965137720108032,
                -1
            ],
            "type" : "VEC3"
        },
        {
            "bufferView" : 17,
            "componentType" : 5126,
            "count" : 372,
            "type" : "VEC3"
        },
        {
            "bufferView" : 18,
            "componentType" : 5126,
            "count" : 372,
            "type" : "VEC2"
        },
        {
            "bufferView" : 19,
            "componentType" : 5123,
            "count" : 726,
            "type" : "SCALAR"
        },
        {
            "bufferView" : 20,
            "componentType" : 5126,
            "count" : 851,
            "max" : [
                0.4738457202911377,
                0.02607622742652893,
                0.4738457202911377
            ],
            "min" : [
                -0.4738456606864929,
                -0.8934926986694336,
                -0.4738456606864929
            ],
            "type" : "VEC3"
        },
        {
            "bufferView" : 21,
            "componentType" : 5126,
            "count" : 851,
            "type" : "VEC3"
        },
        {
            "bufferView" : 22,
            "componentType" : 5126,
            "count" : 851,
            "type" : "VEC2"
        },
        {
            "bufferView" : 23,
            "componentType" : 5123,
            "count" : 2484,
            "type" : "SCALAR"
        },
        {
            "bufferView" : 24,
            "componentType" : 5126,
            "count" : 366,
            "max" : [
                0.3196755051612854,
                -0.9082427620887756,
                0.319675475358963
            ],
            "min" : [
                -0.31967538595199585,
                -1.3284595012664795,
                -0.31967541575431824
            ],
            "type" : "VEC3"
        },
        {
            "bufferView" : 25,
            "componentType" : 5126,
            "count" : 366,
            "type" : "VEC3"
        },
        {
            "bufferView" : 26,
            "componentType" : 5126,
            "count" : 366,
            "type" : "VEC2"
        },
        {
            "bufferView" : 27,
            "componentType" : 5123,
            "count" : 1524,
            "type" : "SCALAR"
        },
        {
            "bufferView" : 28,
            "componentType" : 5126,
            "count" : 316,
            "max" : [
                0.43444880843162537,
                -0.5237311720848083,
                0.3335965871810913
            ],
            "min" : [
                -0.019270097836852074,
                -0.6365333199501038,
                -0.4865330457687378
            ],
            "type" : "VEC3"
        },
        {
            "bufferView" : 29,
            "componentType" : 5126,
            "count" : 316,
            "type" : "VEC3"
        },
        {
            "bufferView" : 30,
            "componentType" : 5126,
            "count" : 316,
            "type" : "VEC2"
        },
        {
            "bufferView" : 31,
            "componentType" : 5123,
            "count" : 912,
            "type" : "SCALAR"
        },
        {
            "bufferView" : 32,
            "componentType" : 5126,
            "count" : 2125,
            "max" : [
                0.9069929718971252,
                2.6285922527313232,
                0.4516908526420593
            ],
            "min" : [
                -0.4516907334327698,
                -0.9013757705688477,
                -0.4834029972553253
            ],
            "type" : "VEC3"
        },
        {
            "bufferView" : 33,
            "componentType" : 5126,
            "count" : 2125,
            "type" : "VEC3"
        },
        {
            "bufferView" : 34,
            "componentType" : 5126,
            "count" : 2125,
            "type" : "VEC2"
        },
        {
            "bufferView" : 35,
            "componentType" : 5123,
            "count" : 7158,
            "type" : "SCALAR"
        },
        {
            "bufferView" : 36,
            "componentType" : 5126,
            "count" : 288,
            "max" : [
                0.45986297726631165,
                -0.2002364844083786,
                0.45986297726631165
            ],
            "min" : [
                -0.45986291766166687,
                -0.23271338641643524,
                -0.45986291766166687
            ],
            "type" : "VEC3"
        },
        {
            "bufferView" : 37,
            "componentType" : 5126,
            "count" : 288,
            "type" : "VEC3"
        },
        {
            "bufferView" : 38,
            "componentType" : 5126,
            "count" : 288,
            "type" : "VEC2"
        },
        {
            "bufferView" : 39,
            "componentType" : 5123,
            "count" : 804,
            "type" : "SCALAR"
        },
        {
            "bufferView" : 40,
            "componentType" : 5126,
            "count" : 528,
            "max" : [
                1.0259168148040771,
                1.9407941102981567,
                1.0259168148040771
            ],
            "min" : [
                -1.0259168148040771,
                1.6698520183563232,
                -1.0259168148040771
            ],
            "type" : "VEC3"
        },
        {
            "bufferView" : 41,
            "componentType" : 5126,
            "count" : 528,
            "type" : "VEC3"
        },
        {
            "bufferView" : 42,
            "componentType" : 5126,
            "count" : 528,
            "type" : "VEC2"
        },
        {
            "bufferView" : 43,
            "componentType" : 5123,
            "count" : 1536,
            "type" : "SCALAR"
        }
    ],
    "bufferViews" : [
        {
            "buffer" : 0,
            "byteLength" : 20832,
            "byteOffset" : 0
        },
        {
            "buffer" : 0,
            "byteLength" : 20832,
            "byteOffset" : 20832
        },
        {
            "buffer" : 0,
            "byteLength" : 13888,
            "byteOffset" : 41664
        },
        {
            "buffer" : 0,
            "byteLength" : 10848,
            "byteOffset" : 55552
        },
        {
            "buffer" : 0,
            "byteLength" : 7716,
            "byteOffset" : 66400
        },
        {
            "buffer" : 0,
            "byteLength" : 7716,
            "byteOffset" : 74116
        },
        {
            "buffer" : 0,
            "byteLength" : 5144,
            "byteOffset" : 81832
        },
        {
            "buffer" : 0,
            "byteLength" : 4044,
            "byteOffset" : 86976
        },
        {
            "buffer" : 0,
            "byteLength" : 4680,
            "byteOffset" : 91020
        },
        {
            "buffer" : 0,
            "byteLength" : 4680,
            "byteOffset" : 95700
        },
        {
            "buffer" : 0,
            "byteLength" : 3120,
            "byteOffset" : 100380
        },
        {
            "buffer" : 0,
            "byteLength" : 2304,
            "byteOffset" : 103500
        },
        {
            "buffer" : 0,
            "byteLength" : 15324,
            "byteOffset" : 105804
        },
        {
            "buffer" : 0,
            "byteLength" : 15324,
            "byteOffset" : 121128
        },
        {
            "buffer" : 0,
            "byteLength" : 10216,
            "byteOffset" : 136452
        },
        {
            "buffer" : 0,
            "byteLength" : 9204,
            "byteOffset" : 146668
        },
        {
            "buffer" : 0,
            "byteLength" : 4464,
            "byteOffset" : 155872
        },
        {
            "buffer" : 0,
            "byteLength" : 4464,
            "byteOffset" : 160336
        },
        {
            "buffer" : 0,
            "byteLength" : 2976,
            "byteOffset" : 164800
        },
        {
            "buffer" : 0,
            "byteLength" : 1452,
            "byteOffset" : 167776
        },
        {
            "buffer" : 0,
            "byteLength" : 10212,
            "byteOffset" : 169228
        },
        {
            "buffer" : 0,
            "byteLength" : 10212,
            "byteOffset" : 179440
        },
        {
            "buffer" : 0,
            "byteLength" : 6808,
            "byteOffset" : 189652
        },
        {
            "buffer" : 0,
            "byteLength" : 4968,
            "byteOffset" : 196460
        },
        {
            "buffer" : 0,
            "byteLength" : 4392,
            "byteOffset" : 201428
        },
        {
            "buffer" : 0,
            "byteLength" : 4392,
            "byteOffset" : 205820
        },
        {
            "buffer" : 0,
            "byteLength" : 2928,
            "byteOffset" : 210212
        },
        {
            "buffer" : 0,
            "byteLength" : 3048,
            "byteOffset" : 213140
        },
        {
            "buffer" : 0,
            "byteLength" : 3792,
            "byteOffset" : 216188
        },
        {
            "buffer" : 0,
            "byteLength" : 3792,
            "byteOffset" : 219980
        },
        {
            "buffer" : 0,
            "byteLength" : 2528,
            "byteOffset" : 223772
        },
        {
            "buffer" : 0,
            "byteLength" : 1824,
            "byteOffset" : 226300
        },
        {
            "buffer" : 0,
            "byteLength" : 25500,
            "byteOffset" : 228124
        },
        {
            "buffer" : 0,
            "byteLength" : 25500,
            "byteOffset" : 253624
        },
        {
            "buffer" : 0,
            "byteLength" : 17000,
            "byteOffset" : 279124
        },
        {
            "buffer" : 0,
            "byteLength" : 14316,
            "byteOffset" : 296124
        },
        {
            "buffer" : 0,
            "byteLength" : 3456,
            "byteOffset" : 310440
        },
        {
            "buffer" : 0,
            "byteLength" : 3456,
            "byteOffset" : 313896
        },
        {
            "buffer" : 0,
            "byteLength" : 2304,
            "byteOffset" : 317352
        },
        {
            "buffer" : 0,
            "byteLength" : 1608,
            "byteOffset" : 319656
        },
        {
            "buffer" : 0,
            "byteLength" : 6336,
            "byteOffset" : 321264
        },
        {
            "buffer" : 0,
            "byteLength" : 6336,
            "byteOffset" : 327600
        },
        {
            "buffer" : 0,
            "byteLength" : 4224,
            "byteOffset" : 333936
        },
        {
            "buffer" : 0,
            "byteLength" : 3072,
            "byteOffset" : 338160
        }
    ],
    "buffers" : [
        {
            "byteLength" : 341232,
            "uri" : "PalapaB.bin"
        }
    ]
}
